<svg width="1440" height="800" viewBox="0 0 1440 800" fill="none" xmlns="http://www.w3.org/2000/svg">
<g clip-path="url(#clip0_2_61)">
<path opacity="0.4" d="M1431.47 168.233C1379.98 149.485 1319.76 140.319 1264.06 155.96C1235.31 164.029 1205.62 178.315 1187.79 196.088C1173.13 210.692 1166.22 228.266 1160.43 245.361C1150.15 275.566 1143.7 313.622 1102.46 331.952C1057.61 351.876 997.566 336.853 955.085 321.133C902.034 301.488 855.723 274.311 808.864 248.509C759.817 221.491 706.305 197.761 645.392 185.767C612.185 179.232 576.991 176.641 542.804 180.885C506.976 185.348 474 197.303 447.014 214.079C401.192 242.551 382.068 285.887 377.748 327.19C373.342 369.41 382.328 412.108 397.131 453.013C418.732 512.706 460.406 569.531 463.027 632.053C464.092 657.756 457.152 686.606 426.047 703.363C395.691 719.701 347.421 722.669 311.968 713.325C276.054 703.841 251.227 681.984 232.709 659.569C210.475 632.611 195.095 603.223 178.621 574.452C163.357 547.753 147.891 519.441 121.682 496.787C109.298 486.067 93.9763 477.918 76.2927 471.702C58.926 465.605 38.3047 461.76 19.3828 466.761C11.9522 468.713 5.55849 471.662 -2.35907e-05 475.308L0 1015L1440 1015L1440 171.441C1437.18 170.345 1434.33 169.269 1431.47 168.213L1431.47 168.233Z" fill="url(#paint0_linear_2_61)"/>
</g>
<defs>
<linearGradient id="paint0_linear_2_61" x1="-505.259" y1="1304.83" x2="1155.14" y2="-492.9" gradientUnits="userSpaceOnUse">
<stop stop-color="#1A85E5"/>
<stop offset="1" stop-color="#003566"/>
</linearGradient>
<clipPath id="clip0_2_61">
<rect width="1440" height="800" fill="white"/>
</clipPath>
</defs>
</svg>
