<svg width="328" height="65" viewBox="0 0 328 65" fill="none" xmlns="http://www.w3.org/2000/svg">
<mask id="path-1-outside-1_2_36" maskUnits="userSpaceOnUse" x="4" y="4" width="321" height="57" fill="black">
<rect fill="white" x="4" y="4" width="321" height="57"/>
<path d="M39.1957 46.59C39.1957 50.5755 37.7011 53.6958 34.7119 55.9508C31.7227 58.2058 27.3176 59.3333 21.4966 59.3333C19.294 59.3333 17.2488 59.176 15.3609 58.8614C13.473 58.5467 11.8473 58.0747 10.4838 57.4454C9.17273 56.7637 8.12389 55.9246 7.33727 54.9282C6.60308 53.9318 6.23599 52.7519 6.23599 51.3884C6.23599 50.1298 6.4982 49.081 7.02262 48.2419C7.54703 47.3504 8.17634 46.6162 8.91052 46.0393C10.4313 46.8784 12.1619 47.6388 14.1023 48.3205C16.0951 48.9499 18.3763 49.2645 20.9459 49.2645C22.5716 49.2645 23.804 49.0285 24.6431 48.5565C25.5346 48.0846 25.9803 47.4553 25.9803 46.6686C25.9803 45.9344 25.6657 45.3576 25.0364 44.938C24.4071 44.5185 23.3582 44.1776 21.8899 43.9154L19.53 43.4435C14.9676 42.5519 11.5588 41.1622 9.30383 39.2743C7.10128 37.334 6 34.5808 6 31.0147C6 29.0744 6.41953 27.3176 7.2586 25.7443C8.09767 24.1711 9.27761 22.86 10.7984 21.8112C12.3192 20.7624 14.1285 19.9495 16.2262 19.3727C18.3763 18.7958 20.7362 18.5074 23.3058 18.5074C25.2461 18.5074 27.0554 18.6647 28.7335 18.9794C30.4641 19.2416 31.9587 19.6611 33.2173 20.238C34.4759 20.8148 35.4723 21.5752 36.2065 22.5192C36.9407 23.4107 37.3078 24.4857 37.3078 25.7443C37.3078 26.9505 37.0718 27.9993 36.5998 28.8909C36.1803 29.7299 35.6296 30.4379 34.9479 31.0147C34.5284 30.7525 33.899 30.4903 33.06 30.2281C32.2209 29.9135 31.3032 29.6513 30.3068 29.4415C29.3104 29.1793 28.2878 28.9695 27.2389 28.8122C26.2425 28.6549 25.3248 28.5762 24.4857 28.5762C22.7552 28.5762 21.4179 28.786 20.4739 29.2055C19.53 29.5726 19.058 30.1757 19.058 31.0147C19.058 31.5916 19.3202 32.0636 19.8446 32.4307C20.3691 32.7978 21.3655 33.1386 22.8338 33.4533L25.2724 34.0039C30.3068 35.1576 33.8728 36.7571 35.9705 38.8024C38.1206 40.7951 39.1957 43.391 39.1957 46.59Z"/>
<path d="M80.8924 38.881C80.8924 42.1324 80.3942 45.0429 79.3979 47.6126C78.4015 50.1298 76.9855 52.2537 75.1501 53.9843C73.367 55.7148 71.2169 57.0259 68.6997 57.9174C66.1825 58.8089 63.3769 59.2547 60.2828 59.2547C57.1887 59.2547 54.3831 58.7827 51.8659 57.8387C49.3487 56.8948 47.1724 55.5575 45.3369 53.8269C43.5539 52.0439 42.1642 49.8938 41.1678 47.3766C40.1714 44.8594 39.6732 42.0275 39.6732 38.881C39.6732 35.787 40.1714 32.9813 41.1678 30.4641C42.1642 27.9469 43.5539 25.823 45.3369 24.0924C47.1724 22.3094 49.3487 20.9459 51.8659 20.002C54.3831 19.058 57.1887 18.586 60.2828 18.586C63.3769 18.586 66.1825 19.0842 68.6997 20.0806C71.2169 21.0246 73.367 22.3881 75.1501 24.1711C76.9855 25.9017 78.4015 28.0256 79.3979 30.5428C80.3942 33.06 80.8924 35.8394 80.8924 38.881ZM53.3605 38.881C53.3605 42.08 53.9636 44.5447 55.1697 46.2753C56.4283 47.9535 58.1589 48.7925 60.3615 48.7925C62.564 48.7925 64.2422 47.9272 65.3959 46.1967C66.6021 44.4661 67.2051 42.0275 67.2051 38.881C67.2051 35.7345 66.6021 33.3222 65.3959 31.644C64.1897 29.9135 62.4854 29.0482 60.2828 29.0482C58.0803 29.0482 56.3759 29.9135 55.1697 31.644C53.9636 33.3222 53.3605 35.7345 53.3605 38.881Z"/>
<path d="M96.0694 57.9174C95.545 58.0747 94.7059 58.2321 93.5522 58.3894C92.451 58.5467 91.2972 58.6254 90.0911 58.6254C88.9373 58.6254 87.8885 58.5467 86.9446 58.3894C86.0531 58.2321 85.2926 57.9174 84.6633 57.4454C84.034 56.9734 83.5358 56.3441 83.1688 55.5575C82.8541 54.7184 82.6968 53.6434 82.6968 52.3323V28.7335C82.6968 27.5274 82.9065 26.5048 83.3261 25.6657C83.798 24.7742 84.4536 23.9875 85.2926 23.3058C86.1317 22.6241 87.1543 22.021 88.3605 21.4966C89.6191 20.9197 90.9564 20.4215 92.3723 20.002C93.7882 19.5824 95.2566 19.2678 96.7774 19.058C98.2982 18.7958 99.819 18.6647 101.34 18.6647C103.857 18.6647 105.85 19.1629 107.318 20.1593C108.787 21.1032 109.521 22.6765 109.521 24.8791C109.521 25.6132 109.416 26.3474 109.206 27.0816C108.996 27.7634 108.734 28.3927 108.419 28.9695C107.318 28.9695 106.191 29.022 105.037 29.1268C103.883 29.2317 102.756 29.3891 101.654 29.5988C100.553 29.8086 99.5044 30.0446 98.508 30.3068C97.564 30.5166 96.7512 30.7788 96.0694 31.0934V57.9174Z"/>
<path d="M123.691 44.8594C123.691 46.2229 124.11 47.1931 124.949 47.7699C125.841 48.3468 127.073 48.6352 128.646 48.6352C129.433 48.6352 130.246 48.5828 131.085 48.4779C131.924 48.3205 132.658 48.137 133.287 47.9272C133.759 48.5041 134.153 49.1596 134.467 49.8938C134.834 50.5755 135.018 51.4146 135.018 52.411C135.018 54.4038 134.258 56.0295 132.737 57.2881C131.268 58.5467 128.646 59.176 124.87 59.176C120.256 59.176 116.69 58.1272 114.172 56.0295C111.708 53.9318 110.475 50.5231 110.475 45.8033V12.1357C111.052 11.9784 111.865 11.821 112.914 11.6637C114.015 11.4539 115.169 11.3491 116.375 11.3491C118.682 11.3491 120.465 11.7686 121.724 12.6077C123.035 13.3943 123.691 15.0987 123.691 17.7207V22.7552H133.995C134.31 23.332 134.598 24.0662 134.861 24.9577C135.175 25.7968 135.333 26.7407 135.333 27.7896C135.333 29.625 134.913 30.9623 134.074 31.8014C133.287 32.588 132.212 32.9813 130.849 32.9813H123.691V44.8594Z"/>
<path d="M156.849 59.2547C153.755 59.2547 150.871 58.8351 148.196 57.9961C145.574 57.1046 143.267 55.7935 141.274 54.0629C139.334 52.3323 137.787 50.156 136.633 47.5339C135.532 44.9118 134.981 41.844 134.981 38.3304C134.981 34.8692 135.532 31.9063 136.633 29.4415C137.787 26.9243 139.281 24.8791 141.117 23.3058C142.952 21.6801 145.05 20.5002 147.41 19.766C149.77 18.9793 152.182 18.586 154.647 18.586C157.426 18.586 159.943 19.0056 162.198 19.8446C164.506 20.6837 166.472 21.8374 168.098 23.3058C169.776 24.7742 171.061 26.531 171.953 28.5762C172.896 30.6214 173.368 32.8502 173.368 35.2625C173.368 37.0456 172.87 38.409 171.874 39.353C170.877 40.297 169.488 40.9 167.705 41.1622L148.275 44.0728C148.852 45.8033 150.032 47.1144 151.815 48.0059C153.598 48.845 155.643 49.2645 157.951 49.2645C160.101 49.2645 162.12 49.0023 164.008 48.4779C165.948 47.901 167.521 47.2455 168.727 46.5113C169.566 47.0357 170.274 47.7699 170.851 48.7139C171.428 49.6578 171.717 50.6542 171.717 51.703C171.717 54.0629 170.615 55.8197 168.413 56.9734C166.735 57.865 164.847 58.468 162.749 58.7827C160.651 59.0973 158.685 59.2547 156.849 59.2547ZM154.647 28.3402C153.388 28.3402 152.287 28.55 151.343 28.9695C150.451 29.3891 149.717 29.9397 149.14 30.6214C148.563 31.2507 148.118 31.9849 147.803 32.824C147.541 33.6106 147.384 34.4235 147.331 35.2625L160.782 33.06C160.625 32.0111 160.048 30.9623 159.052 29.9135C158.055 28.8646 156.587 28.3402 154.647 28.3402Z"/>
<path d="M191.447 49.5005C192.339 49.5005 193.309 49.4218 194.358 49.2645C195.459 49.0547 196.272 48.7925 196.796 48.4779V42.1849L191.133 42.6568C189.664 42.7617 188.458 43.0764 187.514 43.6008C186.57 44.1252 186.098 44.9118 186.098 45.9607C186.098 47.0095 186.492 47.8748 187.278 48.5565C188.117 49.1858 189.507 49.5005 191.447 49.5005ZM190.818 18.586C193.65 18.586 196.22 18.8745 198.527 19.4513C200.887 20.0282 202.88 20.9197 204.505 22.1259C206.184 23.2796 207.468 24.7742 208.36 26.6096C209.251 28.3927 209.697 30.5166 209.697 32.9813V50.6018C209.697 51.9653 209.304 53.0928 208.517 53.9843C207.783 54.8233 206.892 55.5575 205.843 56.1868C202.434 58.2321 197.636 59.2547 191.447 59.2547C188.668 59.2547 186.151 58.9925 183.896 58.468C181.693 57.9436 179.779 57.157 178.153 56.1082C176.58 55.0593 175.348 53.7221 174.456 52.0964C173.617 50.4707 173.198 48.5828 173.198 46.4326C173.198 42.8142 174.273 40.0347 176.423 38.0944C178.573 36.154 181.903 34.9479 186.413 34.4759L196.718 33.3746V32.824C196.718 31.3032 196.036 30.2281 194.673 29.5988C193.362 28.9171 191.447 28.5762 188.93 28.5762C186.937 28.5762 184.997 28.786 183.109 29.2055C181.221 29.625 179.517 30.1495 177.996 30.7788C177.314 30.3068 176.737 29.5988 176.265 28.6549C175.794 27.6585 175.558 26.6359 175.558 25.587C175.558 24.2235 175.872 23.1485 176.501 22.3618C177.183 21.5228 178.206 20.8148 179.569 20.238C181.09 19.6611 182.873 19.2416 184.918 18.9794C187.016 18.7171 188.983 18.586 190.818 18.586Z"/>
<path d="M211.502 38.881C211.502 35.4199 212.026 32.4307 213.075 29.9135C214.124 27.3438 215.566 25.2199 217.402 23.5418C219.29 21.8636 221.466 20.6313 223.931 19.8446C226.448 19.0056 229.149 18.586 232.033 18.586C233.082 18.586 234.104 18.6909 235.101 18.9007C236.097 19.058 236.91 19.2678 237.539 19.53V6.78663C238.064 6.6293 238.903 6.47197 240.057 6.31465C241.21 6.10488 242.39 6 243.596 6C244.75 6 245.773 6.07866 246.664 6.23599C247.608 6.39331 248.395 6.70796 249.024 7.17994C249.654 7.65192 250.125 8.30744 250.44 9.14651C250.755 9.93314 250.912 10.982 250.912 12.293V49.5792C250.912 52.0439 249.758 54.0105 247.451 55.4789C245.93 56.4753 243.964 57.3405 241.551 58.0747C239.139 58.8614 236.359 59.2547 233.213 59.2547C229.804 59.2547 226.736 58.7827 224.009 57.8387C221.335 56.8948 219.054 55.5313 217.166 53.7483C215.33 51.9653 213.914 49.8414 212.918 47.3766C211.974 44.8594 211.502 42.0275 211.502 38.881ZM233.842 29.0482C231.01 29.0482 228.834 29.861 227.313 31.4867C225.792 33.1124 225.032 35.5772 225.032 38.881C225.032 42.1324 225.74 44.5972 227.156 46.2753C228.572 47.901 230.617 48.7139 233.292 48.7139C234.236 48.7139 235.075 48.5828 235.809 48.3205C236.595 48.0059 237.199 47.665 237.618 47.2979V29.9921C236.569 29.3628 235.311 29.0482 233.842 29.0482Z"/>
<path d="M294.093 38.881C294.093 42.1324 293.595 45.0429 292.598 47.6126C291.602 50.1298 290.186 52.2537 288.351 53.9843C286.568 55.7148 284.418 57.0259 281.9 57.9174C279.383 58.8089 276.577 59.2547 273.483 59.2547C270.389 59.2547 267.584 58.7827 265.066 57.8387C262.549 56.8948 260.373 55.5575 258.537 53.8269C256.754 52.0439 255.365 49.8938 254.368 47.3766C253.372 44.8594 252.874 42.0275 252.874 38.881C252.874 35.787 253.372 32.9813 254.368 30.4641C255.365 27.9469 256.754 25.823 258.537 24.0924C260.373 22.3094 262.549 20.9459 265.066 20.002C267.584 19.058 270.389 18.586 273.483 18.586C276.577 18.586 279.383 19.0842 281.9 20.0806C284.418 21.0246 286.568 22.3881 288.351 24.1711C290.186 25.9017 291.602 28.0256 292.598 30.5428C293.595 33.06 294.093 35.8394 294.093 38.881ZM266.561 38.881C266.561 42.08 267.164 44.5447 268.37 46.2753C269.629 47.9535 271.359 48.7925 273.562 48.7925C275.765 48.7925 277.443 47.9272 278.596 46.1967C279.803 44.4661 280.406 42.0275 280.406 38.881C280.406 35.7345 279.803 33.3222 278.596 31.644C277.39 29.9135 275.686 29.0482 273.483 29.0482C271.281 29.0482 269.576 29.9135 268.37 31.644C267.164 33.3222 266.561 35.7345 266.561 38.881Z"/>
<path d="M309.27 57.9174C308.746 58.0747 307.907 58.2321 306.753 58.3894C305.652 58.5467 304.498 58.6254 303.292 58.6254C302.138 58.6254 301.089 58.5467 300.145 58.3894C299.254 58.2321 298.493 57.9174 297.864 57.4454C297.235 56.9734 296.736 56.3441 296.369 55.5575C296.055 54.7184 295.897 53.6434 295.897 52.3323V28.7335C295.897 27.5274 296.107 26.5048 296.527 25.6657C296.999 24.7742 297.654 23.9875 298.493 23.3058C299.332 22.6241 300.355 22.021 301.561 21.4966C302.82 20.9197 304.157 20.4215 305.573 20.002C306.989 19.5824 308.457 19.2678 309.978 19.058C311.499 18.7958 313.02 18.6647 314.54 18.6647C317.058 18.6647 319.05 19.1629 320.519 20.1593C321.987 21.1032 322.721 22.6765 322.721 24.8791C322.721 25.6132 322.616 26.3474 322.407 27.0816C322.197 27.7634 321.935 28.3927 321.62 28.9695C320.519 28.9695 319.391 29.022 318.238 29.1268C317.084 29.2317 315.956 29.3891 314.855 29.5988C313.754 29.8086 312.705 30.0446 311.709 30.3068C310.765 30.5166 309.952 30.7788 309.27 31.0934V57.9174Z"/>
</mask>
<path d="M39.1957 46.59C39.1957 50.5755 37.7011 53.6958 34.7119 55.9508C31.7227 58.2058 27.3176 59.3333 21.4966 59.3333C19.294 59.3333 17.2488 59.176 15.3609 58.8614C13.473 58.5467 11.8473 58.0747 10.4838 57.4454C9.17273 56.7637 8.12389 55.9246 7.33727 54.9282C6.60308 53.9318 6.23599 52.7519 6.23599 51.3884C6.23599 50.1298 6.4982 49.081 7.02262 48.2419C7.54703 47.3504 8.17634 46.6162 8.91052 46.0393C10.4313 46.8784 12.1619 47.6388 14.1023 48.3205C16.0951 48.9499 18.3763 49.2645 20.9459 49.2645C22.5716 49.2645 23.804 49.0285 24.6431 48.5565C25.5346 48.0846 25.9803 47.4553 25.9803 46.6686C25.9803 45.9344 25.6657 45.3576 25.0364 44.938C24.4071 44.5185 23.3582 44.1776 21.8899 43.9154L19.53 43.4435C14.9676 42.5519 11.5588 41.1622 9.30383 39.2743C7.10128 37.334 6 34.5808 6 31.0147C6 29.0744 6.41953 27.3176 7.2586 25.7443C8.09767 24.1711 9.27761 22.86 10.7984 21.8112C12.3192 20.7624 14.1285 19.9495 16.2262 19.3727C18.3763 18.7958 20.7362 18.5074 23.3058 18.5074C25.2461 18.5074 27.0554 18.6647 28.7335 18.9794C30.4641 19.2416 31.9587 19.6611 33.2173 20.238C34.4759 20.8148 35.4723 21.5752 36.2065 22.5192C36.9407 23.4107 37.3078 24.4857 37.3078 25.7443C37.3078 26.9505 37.0718 27.9993 36.5998 28.8909C36.1803 29.7299 35.6296 30.4379 34.9479 31.0147C34.5284 30.7525 33.899 30.4903 33.06 30.2281C32.2209 29.9135 31.3032 29.6513 30.3068 29.4415C29.3104 29.1793 28.2878 28.9695 27.2389 28.8122C26.2425 28.6549 25.3248 28.5762 24.4857 28.5762C22.7552 28.5762 21.4179 28.786 20.4739 29.2055C19.53 29.5726 19.058 30.1757 19.058 31.0147C19.058 31.5916 19.3202 32.0636 19.8446 32.4307C20.3691 32.7978 21.3655 33.1386 22.8338 33.4533L25.2724 34.0039C30.3068 35.1576 33.8728 36.7571 35.9705 38.8024C38.1206 40.7951 39.1957 43.391 39.1957 46.59Z" fill="#FFB800"/>
<path d="M80.8924 38.881C80.8924 42.1324 80.3942 45.0429 79.3979 47.6126C78.4015 50.1298 76.9855 52.2537 75.1501 53.9843C73.367 55.7148 71.2169 57.0259 68.6997 57.9174C66.1825 58.8089 63.3769 59.2547 60.2828 59.2547C57.1887 59.2547 54.3831 58.7827 51.8659 57.8387C49.3487 56.8948 47.1724 55.5575 45.3369 53.8269C43.5539 52.0439 42.1642 49.8938 41.1678 47.3766C40.1714 44.8594 39.6732 42.0275 39.6732 38.881C39.6732 35.787 40.1714 32.9813 41.1678 30.4641C42.1642 27.9469 43.5539 25.823 45.3369 24.0924C47.1724 22.3094 49.3487 20.9459 51.8659 20.002C54.3831 19.058 57.1887 18.586 60.2828 18.586C63.3769 18.586 66.1825 19.0842 68.6997 20.0806C71.2169 21.0246 73.367 22.3881 75.1501 24.1711C76.9855 25.9017 78.4015 28.0256 79.3979 30.5428C80.3942 33.06 80.8924 35.8394 80.8924 38.881ZM53.3605 38.881C53.3605 42.08 53.9636 44.5447 55.1697 46.2753C56.4283 47.9535 58.1589 48.7925 60.3615 48.7925C62.564 48.7925 64.2422 47.9272 65.3959 46.1967C66.6021 44.4661 67.2051 42.0275 67.2051 38.881C67.2051 35.7345 66.6021 33.3222 65.3959 31.644C64.1897 29.9135 62.4854 29.0482 60.2828 29.0482C58.0803 29.0482 56.3759 29.9135 55.1697 31.644C53.9636 33.3222 53.3605 35.7345 53.3605 38.881Z" fill="#FFB800"/>
<path d="M96.0694 57.9174C95.545 58.0747 94.7059 58.2321 93.5522 58.3894C92.451 58.5467 91.2972 58.6254 90.0911 58.6254C88.9373 58.6254 87.8885 58.5467 86.9446 58.3894C86.0531 58.2321 85.2926 57.9174 84.6633 57.4454C84.034 56.9734 83.5358 56.3441 83.1688 55.5575C82.8541 54.7184 82.6968 53.6434 82.6968 52.3323V28.7335C82.6968 27.5274 82.9065 26.5048 83.3261 25.6657C83.798 24.7742 84.4536 23.9875 85.2926 23.3058C86.1317 22.6241 87.1543 22.021 88.3605 21.4966C89.6191 20.9197 90.9564 20.4215 92.3723 20.002C93.7882 19.5824 95.2566 19.2678 96.7774 19.058C98.2982 18.7958 99.819 18.6647 101.34 18.6647C103.857 18.6647 105.85 19.1629 107.318 20.1593C108.787 21.1032 109.521 22.6765 109.521 24.8791C109.521 25.6132 109.416 26.3474 109.206 27.0816C108.996 27.7634 108.734 28.3927 108.419 28.9695C107.318 28.9695 106.191 29.022 105.037 29.1268C103.883 29.2317 102.756 29.3891 101.654 29.5988C100.553 29.8086 99.5044 30.0446 98.508 30.3068C97.564 30.5166 96.7512 30.7788 96.0694 31.0934V57.9174Z" fill="#FFB800"/>
<path d="M123.691 44.8594C123.691 46.2229 124.11 47.1931 124.949 47.7699C125.841 48.3468 127.073 48.6352 128.646 48.6352C129.433 48.6352 130.246 48.5828 131.085 48.4779C131.924 48.3205 132.658 48.137 133.287 47.9272C133.759 48.5041 134.153 49.1596 134.467 49.8938C134.834 50.5755 135.018 51.4146 135.018 52.411C135.018 54.4038 134.258 56.0295 132.737 57.2881C131.268 58.5467 128.646 59.176 124.87 59.176C120.256 59.176 116.69 58.1272 114.172 56.0295C111.708 53.9318 110.475 50.5231 110.475 45.8033V12.1357C111.052 11.9784 111.865 11.821 112.914 11.6637C114.015 11.4539 115.169 11.3491 116.375 11.3491C118.682 11.3491 120.465 11.7686 121.724 12.6077C123.035 13.3943 123.691 15.0987 123.691 17.7207V22.7552H133.995C134.31 23.332 134.598 24.0662 134.861 24.9577C135.175 25.7968 135.333 26.7407 135.333 27.7896C135.333 29.625 134.913 30.9623 134.074 31.8014C133.287 32.588 132.212 32.9813 130.849 32.9813H123.691V44.8594Z" fill="#FFB800"/>
<path d="M156.849 59.2547C153.755 59.2547 150.871 58.8351 148.196 57.9961C145.574 57.1046 143.267 55.7935 141.274 54.0629C139.334 52.3323 137.787 50.156 136.633 47.5339C135.532 44.9118 134.981 41.844 134.981 38.3304C134.981 34.8692 135.532 31.9063 136.633 29.4415C137.787 26.9243 139.281 24.8791 141.117 23.3058C142.952 21.6801 145.05 20.5002 147.41 19.766C149.77 18.9793 152.182 18.586 154.647 18.586C157.426 18.586 159.943 19.0056 162.198 19.8446C164.506 20.6837 166.472 21.8374 168.098 23.3058C169.776 24.7742 171.061 26.531 171.953 28.5762C172.896 30.6214 173.368 32.8502 173.368 35.2625C173.368 37.0456 172.87 38.409 171.874 39.353C170.877 40.297 169.488 40.9 167.705 41.1622L148.275 44.0728C148.852 45.8033 150.032 47.1144 151.815 48.0059C153.598 48.845 155.643 49.2645 157.951 49.2645C160.101 49.2645 162.12 49.0023 164.008 48.4779C165.948 47.901 167.521 47.2455 168.727 46.5113C169.566 47.0357 170.274 47.7699 170.851 48.7139C171.428 49.6578 171.717 50.6542 171.717 51.703C171.717 54.0629 170.615 55.8197 168.413 56.9734C166.735 57.865 164.847 58.468 162.749 58.7827C160.651 59.0973 158.685 59.2547 156.849 59.2547ZM154.647 28.3402C153.388 28.3402 152.287 28.55 151.343 28.9695C150.451 29.3891 149.717 29.9397 149.14 30.6214C148.563 31.2507 148.118 31.9849 147.803 32.824C147.541 33.6106 147.384 34.4235 147.331 35.2625L160.782 33.06C160.625 32.0111 160.048 30.9623 159.052 29.9135C158.055 28.8646 156.587 28.3402 154.647 28.3402Z" fill="#FFB800"/>
<path d="M191.447 49.5005C192.339 49.5005 193.309 49.4218 194.358 49.2645C195.459 49.0547 196.272 48.7925 196.796 48.4779V42.1849L191.133 42.6568C189.664 42.7617 188.458 43.0764 187.514 43.6008C186.57 44.1252 186.098 44.9118 186.098 45.9607C186.098 47.0095 186.492 47.8748 187.278 48.5565C188.117 49.1858 189.507 49.5005 191.447 49.5005ZM190.818 18.586C193.65 18.586 196.22 18.8745 198.527 19.4513C200.887 20.0282 202.88 20.9197 204.505 22.1259C206.184 23.2796 207.468 24.7742 208.36 26.6096C209.251 28.3927 209.697 30.5166 209.697 32.9813V50.6018C209.697 51.9653 209.304 53.0928 208.517 53.9843C207.783 54.8233 206.892 55.5575 205.843 56.1868C202.434 58.2321 197.636 59.2547 191.447 59.2547C188.668 59.2547 186.151 58.9925 183.896 58.468C181.693 57.9436 179.779 57.157 178.153 56.1082C176.58 55.0593 175.348 53.7221 174.456 52.0964C173.617 50.4707 173.198 48.5828 173.198 46.4326C173.198 42.8142 174.273 40.0347 176.423 38.0944C178.573 36.154 181.903 34.9479 186.413 34.4759L196.718 33.3746V32.824C196.718 31.3032 196.036 30.2281 194.673 29.5988C193.362 28.9171 191.447 28.5762 188.93 28.5762C186.937 28.5762 184.997 28.786 183.109 29.2055C181.221 29.625 179.517 30.1495 177.996 30.7788C177.314 30.3068 176.737 29.5988 176.265 28.6549C175.794 27.6585 175.558 26.6359 175.558 25.587C175.558 24.2235 175.872 23.1485 176.501 22.3618C177.183 21.5228 178.206 20.8148 179.569 20.238C181.09 19.6611 182.873 19.2416 184.918 18.9794C187.016 18.7171 188.983 18.586 190.818 18.586Z" fill="#FFB800"/>
<path d="M211.502 38.881C211.502 35.4199 212.026 32.4307 213.075 29.9135C214.124 27.3438 215.566 25.2199 217.402 23.5418C219.29 21.8636 221.466 20.6313 223.931 19.8446C226.448 19.0056 229.149 18.586 232.033 18.586C233.082 18.586 234.104 18.6909 235.101 18.9007C236.097 19.058 236.91 19.2678 237.539 19.53V6.78663C238.064 6.6293 238.903 6.47197 240.057 6.31465C241.21 6.10488 242.39 6 243.596 6C244.75 6 245.773 6.07866 246.664 6.23599C247.608 6.39331 248.395 6.70796 249.024 7.17994C249.654 7.65192 250.125 8.30744 250.44 9.14651C250.755 9.93314 250.912 10.982 250.912 12.293V49.5792C250.912 52.0439 249.758 54.0105 247.451 55.4789C245.93 56.4753 243.964 57.3405 241.551 58.0747C239.139 58.8614 236.359 59.2547 233.213 59.2547C229.804 59.2547 226.736 58.7827 224.009 57.8387C221.335 56.8948 219.054 55.5313 217.166 53.7483C215.33 51.9653 213.914 49.8414 212.918 47.3766C211.974 44.8594 211.502 42.0275 211.502 38.881ZM233.842 29.0482C231.01 29.0482 228.834 29.861 227.313 31.4867C225.792 33.1124 225.032 35.5772 225.032 38.881C225.032 42.1324 225.74 44.5972 227.156 46.2753C228.572 47.901 230.617 48.7139 233.292 48.7139C234.236 48.7139 235.075 48.5828 235.809 48.3205C236.595 48.0059 237.199 47.665 237.618 47.2979V29.9921C236.569 29.3628 235.311 29.0482 233.842 29.0482Z" fill="#FFB800"/>
<path d="M294.093 38.881C294.093 42.1324 293.595 45.0429 292.598 47.6126C291.602 50.1298 290.186 52.2537 288.351 53.9843C286.568 55.7148 284.418 57.0259 281.9 57.9174C279.383 58.8089 276.577 59.2547 273.483 59.2547C270.389 59.2547 267.584 58.7827 265.066 57.8387C262.549 56.8948 260.373 55.5575 258.537 53.8269C256.754 52.0439 255.365 49.8938 254.368 47.3766C253.372 44.8594 252.874 42.0275 252.874 38.881C252.874 35.787 253.372 32.9813 254.368 30.4641C255.365 27.9469 256.754 25.823 258.537 24.0924C260.373 22.3094 262.549 20.9459 265.066 20.002C267.584 19.058 270.389 18.586 273.483 18.586C276.577 18.586 279.383 19.0842 281.9 20.0806C284.418 21.0246 286.568 22.3881 288.351 24.1711C290.186 25.9017 291.602 28.0256 292.598 30.5428C293.595 33.06 294.093 35.8394 294.093 38.881ZM266.561 38.881C266.561 42.08 267.164 44.5447 268.37 46.2753C269.629 47.9535 271.359 48.7925 273.562 48.7925C275.765 48.7925 277.443 47.9272 278.596 46.1967C279.803 44.4661 280.406 42.0275 280.406 38.881C280.406 35.7345 279.803 33.3222 278.596 31.644C277.39 29.9135 275.686 29.0482 273.483 29.0482C271.281 29.0482 269.576 29.9135 268.37 31.644C267.164 33.3222 266.561 35.7345 266.561 38.881Z" fill="#FFB800"/>
<path d="M309.27 57.9174C308.746 58.0747 307.907 58.2321 306.753 58.3894C305.652 58.5467 304.498 58.6254 303.292 58.6254C302.138 58.6254 301.089 58.5467 300.145 58.3894C299.254 58.2321 298.493 57.9174 297.864 57.4454C297.235 56.9734 296.736 56.3441 296.369 55.5575C296.055 54.7184 295.897 53.6434 295.897 52.3323V28.7335C295.897 27.5274 296.107 26.5048 296.527 25.6657C296.999 24.7742 297.654 23.9875 298.493 23.3058C299.332 22.6241 300.355 22.021 301.561 21.4966C302.82 20.9197 304.157 20.4215 305.573 20.002C306.989 19.5824 308.457 19.2678 309.978 19.058C311.499 18.7958 313.02 18.6647 314.54 18.6647C317.058 18.6647 319.05 19.1629 320.519 20.1593C321.987 21.1032 322.721 22.6765 322.721 24.8791C322.721 25.6132 322.616 26.3474 322.407 27.0816C322.197 27.7634 321.935 28.3927 321.62 28.9695C320.519 28.9695 319.391 29.022 318.238 29.1268C317.084 29.2317 315.956 29.3891 314.855 29.5988C313.754 29.8086 312.705 30.0446 311.709 30.3068C310.765 30.5166 309.952 30.7788 309.27 31.0934V57.9174Z" fill="#FFB800"/>
<path d="M39.1957 46.59C39.1957 50.5755 37.7011 53.6958 34.7119 55.9508C31.7227 58.2058 27.3176 59.3333 21.4966 59.3333C19.294 59.3333 17.2488 59.176 15.3609 58.8614C13.473 58.5467 11.8473 58.0747 10.4838 57.4454C9.17273 56.7637 8.12389 55.9246 7.33727 54.9282C6.60308 53.9318 6.23599 52.7519 6.23599 51.3884C6.23599 50.1298 6.4982 49.081 7.02262 48.2419C7.54703 47.3504 8.17634 46.6162 8.91052 46.0393C10.4313 46.8784 12.1619 47.6388 14.1023 48.3205C16.0951 48.9499 18.3763 49.2645 20.9459 49.2645C22.5716 49.2645 23.804 49.0285 24.6431 48.5565C25.5346 48.0846 25.9803 47.4553 25.9803 46.6686C25.9803 45.9344 25.6657 45.3576 25.0364 44.938C24.4071 44.5185 23.3582 44.1776 21.8899 43.9154L19.53 43.4435C14.9676 42.5519 11.5588 41.1622 9.30383 39.2743C7.10128 37.334 6 34.5808 6 31.0147C6 29.0744 6.41953 27.3176 7.2586 25.7443C8.09767 24.1711 9.27761 22.86 10.7984 21.8112C12.3192 20.7624 14.1285 19.9495 16.2262 19.3727C18.3763 18.7958 20.7362 18.5074 23.3058 18.5074C25.2461 18.5074 27.0554 18.6647 28.7335 18.9794C30.4641 19.2416 31.9587 19.6611 33.2173 20.238C34.4759 20.8148 35.4723 21.5752 36.2065 22.5192C36.9407 23.4107 37.3078 24.4857 37.3078 25.7443C37.3078 26.9505 37.0718 27.9993 36.5998 28.8909C36.1803 29.7299 35.6296 30.4379 34.9479 31.0147C34.5284 30.7525 33.899 30.4903 33.06 30.2281C32.2209 29.9135 31.3032 29.6513 30.3068 29.4415C29.3104 29.1793 28.2878 28.9695 27.2389 28.8122C26.2425 28.6549 25.3248 28.5762 24.4857 28.5762C22.7552 28.5762 21.4179 28.786 20.4739 29.2055C19.53 29.5726 19.058 30.1757 19.058 31.0147C19.058 31.5916 19.3202 32.0636 19.8446 32.4307C20.3691 32.7978 21.3655 33.1386 22.8338 33.4533L25.2724 34.0039C30.3068 35.1576 33.8728 36.7571 35.9705 38.8024C38.1206 40.7951 39.1957 43.391 39.1957 46.59Z" stroke="#0F4C83" stroke-width="2.66667" mask="url(#path-1-outside-1_2_36)"/>
<path d="M80.8924 38.881C80.8924 42.1324 80.3942 45.0429 79.3979 47.6126C78.4015 50.1298 76.9855 52.2537 75.1501 53.9843C73.367 55.7148 71.2169 57.0259 68.6997 57.9174C66.1825 58.8089 63.3769 59.2547 60.2828 59.2547C57.1887 59.2547 54.3831 58.7827 51.8659 57.8387C49.3487 56.8948 47.1724 55.5575 45.3369 53.8269C43.5539 52.0439 42.1642 49.8938 41.1678 47.3766C40.1714 44.8594 39.6732 42.0275 39.6732 38.881C39.6732 35.787 40.1714 32.9813 41.1678 30.4641C42.1642 27.9469 43.5539 25.823 45.3369 24.0924C47.1724 22.3094 49.3487 20.9459 51.8659 20.002C54.3831 19.058 57.1887 18.586 60.2828 18.586C63.3769 18.586 66.1825 19.0842 68.6997 20.0806C71.2169 21.0246 73.367 22.3881 75.1501 24.1711C76.9855 25.9017 78.4015 28.0256 79.3979 30.5428C80.3942 33.06 80.8924 35.8394 80.8924 38.881ZM53.3605 38.881C53.3605 42.08 53.9636 44.5447 55.1697 46.2753C56.4283 47.9535 58.1589 48.7925 60.3615 48.7925C62.564 48.7925 64.2422 47.9272 65.3959 46.1967C66.6021 44.4661 67.2051 42.0275 67.2051 38.881C67.2051 35.7345 66.6021 33.3222 65.3959 31.644C64.1897 29.9135 62.4854 29.0482 60.2828 29.0482C58.0803 29.0482 56.3759 29.9135 55.1697 31.644C53.9636 33.3222 53.3605 35.7345 53.3605 38.881Z" stroke="#0F4C83" stroke-width="2.66667" mask="url(#path-1-outside-1_2_36)"/>
<path d="M96.0694 57.9174C95.545 58.0747 94.7059 58.2321 93.5522 58.3894C92.451 58.5467 91.2972 58.6254 90.0911 58.6254C88.9373 58.6254 87.8885 58.5467 86.9446 58.3894C86.0531 58.2321 85.2926 57.9174 84.6633 57.4454C84.034 56.9734 83.5358 56.3441 83.1688 55.5575C82.8541 54.7184 82.6968 53.6434 82.6968 52.3323V28.7335C82.6968 27.5274 82.9065 26.5048 83.3261 25.6657C83.798 24.7742 84.4536 23.9875 85.2926 23.3058C86.1317 22.6241 87.1543 22.021 88.3605 21.4966C89.6191 20.9197 90.9564 20.4215 92.3723 20.002C93.7882 19.5824 95.2566 19.2678 96.7774 19.058C98.2982 18.7958 99.819 18.6647 101.34 18.6647C103.857 18.6647 105.85 19.1629 107.318 20.1593C108.787 21.1032 109.521 22.6765 109.521 24.8791C109.521 25.6132 109.416 26.3474 109.206 27.0816C108.996 27.7634 108.734 28.3927 108.419 28.9695C107.318 28.9695 106.191 29.022 105.037 29.1268C103.883 29.2317 102.756 29.3891 101.654 29.5988C100.553 29.8086 99.5044 30.0446 98.508 30.3068C97.564 30.5166 96.7512 30.7788 96.0694 31.0934V57.9174Z" stroke="#0F4C83" stroke-width="2.66667" mask="url(#path-1-outside-1_2_36)"/>
<path d="M123.691 44.8594C123.691 46.2229 124.11 47.1931 124.949 47.7699C125.841 48.3468 127.073 48.6352 128.646 48.6352C129.433 48.6352 130.246 48.5828 131.085 48.4779C131.924 48.3205 132.658 48.137 133.287 47.9272C133.759 48.5041 134.153 49.1596 134.467 49.8938C134.834 50.5755 135.018 51.4146 135.018 52.411C135.018 54.4038 134.258 56.0295 132.737 57.2881C131.268 58.5467 128.646 59.176 124.87 59.176C120.256 59.176 116.69 58.1272 114.172 56.0295C111.708 53.9318 110.475 50.5231 110.475 45.8033V12.1357C111.052 11.9784 111.865 11.821 112.914 11.6637C114.015 11.4539 115.169 11.3491 116.375 11.3491C118.682 11.3491 120.465 11.7686 121.724 12.6077C123.035 13.3943 123.691 15.0987 123.691 17.7207V22.7552H133.995C134.31 23.332 134.598 24.0662 134.861 24.9577C135.175 25.7968 135.333 26.7407 135.333 27.7896C135.333 29.625 134.913 30.9623 134.074 31.8014C133.287 32.588 132.212 32.9813 130.849 32.9813H123.691V44.8594Z" stroke="#0F4C83" stroke-width="2.66667" mask="url(#path-1-outside-1_2_36)"/>
<path d="M156.849 59.2547C153.755 59.2547 150.871 58.8351 148.196 57.9961C145.574 57.1046 143.267 55.7935 141.274 54.0629C139.334 52.3323 137.787 50.156 136.633 47.5339C135.532 44.9118 134.981 41.844 134.981 38.3304C134.981 34.8692 135.532 31.9063 136.633 29.4415C137.787 26.9243 139.281 24.8791 141.117 23.3058C142.952 21.6801 145.05 20.5002 147.41 19.766C149.77 18.9793 152.182 18.586 154.647 18.586C157.426 18.586 159.943 19.0056 162.198 19.8446C164.506 20.6837 166.472 21.8374 168.098 23.3058C169.776 24.7742 171.061 26.531 171.953 28.5762C172.896 30.6214 173.368 32.8502 173.368 35.2625C173.368 37.0456 172.87 38.409 171.874 39.353C170.877 40.297 169.488 40.9 167.705 41.1622L148.275 44.0728C148.852 45.8033 150.032 47.1144 151.815 48.0059C153.598 48.845 155.643 49.2645 157.951 49.2645C160.101 49.2645 162.12 49.0023 164.008 48.4779C165.948 47.901 167.521 47.2455 168.727 46.5113C169.566 47.0357 170.274 47.7699 170.851 48.7139C171.428 49.6578 171.717 50.6542 171.717 51.703C171.717 54.0629 170.615 55.8197 168.413 56.9734C166.735 57.865 164.847 58.468 162.749 58.7827C160.651 59.0973 158.685 59.2547 156.849 59.2547ZM154.647 28.3402C153.388 28.3402 152.287 28.55 151.343 28.9695C150.451 29.3891 149.717 29.9397 149.14 30.6214C148.563 31.2507 148.118 31.9849 147.803 32.824C147.541 33.6106 147.384 34.4235 147.331 35.2625L160.782 33.06C160.625 32.0111 160.048 30.9623 159.052 29.9135C158.055 28.8646 156.587 28.3402 154.647 28.3402Z" stroke="#0F4C83" stroke-width="2.66667" mask="url(#path-1-outside-1_2_36)"/>
<path d="M191.447 49.5005C192.339 49.5005 193.309 49.4218 194.358 49.2645C195.459 49.0547 196.272 48.7925 196.796 48.4779V42.1849L191.133 42.6568C189.664 42.7617 188.458 43.0764 187.514 43.6008C186.57 44.1252 186.098 44.9118 186.098 45.9607C186.098 47.0095 186.492 47.8748 187.278 48.5565C188.117 49.1858 189.507 49.5005 191.447 49.5005ZM190.818 18.586C193.65 18.586 196.22 18.8745 198.527 19.4513C200.887 20.0282 202.88 20.9197 204.505 22.1259C206.184 23.2796 207.468 24.7742 208.36 26.6096C209.251 28.3927 209.697 30.5166 209.697 32.9813V50.6018C209.697 51.9653 209.304 53.0928 208.517 53.9843C207.783 54.8233 206.892 55.5575 205.843 56.1868C202.434 58.2321 197.636 59.2547 191.447 59.2547C188.668 59.2547 186.151 58.9925 183.896 58.468C181.693 57.9436 179.779 57.157 178.153 56.1082C176.58 55.0593 175.348 53.7221 174.456 52.0964C173.617 50.4707 173.198 48.5828 173.198 46.4326C173.198 42.8142 174.273 40.0347 176.423 38.0944C178.573 36.154 181.903 34.9479 186.413 34.4759L196.718 33.3746V32.824C196.718 31.3032 196.036 30.2281 194.673 29.5988C193.362 28.9171 191.447 28.5762 188.93 28.5762C186.937 28.5762 184.997 28.786 183.109 29.2055C181.221 29.625 179.517 30.1495 177.996 30.7788C177.314 30.3068 176.737 29.5988 176.265 28.6549C175.794 27.6585 175.558 26.6359 175.558 25.587C175.558 24.2235 175.872 23.1485 176.501 22.3618C177.183 21.5228 178.206 20.8148 179.569 20.238C181.09 19.6611 182.873 19.2416 184.918 18.9794C187.016 18.7171 188.983 18.586 190.818 18.586Z" stroke="#0F4C83" stroke-width="2.66667" mask="url(#path-1-outside-1_2_36)"/>
<path d="M211.502 38.881C211.502 35.4199 212.026 32.4307 213.075 29.9135C214.124 27.3438 215.566 25.2199 217.402 23.5418C219.29 21.8636 221.466 20.6313 223.931 19.8446C226.448 19.0056 229.149 18.586 232.033 18.586C233.082 18.586 234.104 18.6909 235.101 18.9007C236.097 19.058 236.91 19.2678 237.539 19.53V6.78663C238.064 6.6293 238.903 6.47197 240.057 6.31465C241.21 6.10488 242.39 6 243.596 6C244.75 6 245.773 6.07866 246.664 6.23599C247.608 6.39331 248.395 6.70796 249.024 7.17994C249.654 7.65192 250.125 8.30744 250.44 9.14651C250.755 9.93314 250.912 10.982 250.912 12.293V49.5792C250.912 52.0439 249.758 54.0105 247.451 55.4789C245.93 56.4753 243.964 57.3405 241.551 58.0747C239.139 58.8614 236.359 59.2547 233.213 59.2547C229.804 59.2547 226.736 58.7827 224.009 57.8387C221.335 56.8948 219.054 55.5313 217.166 53.7483C215.33 51.9653 213.914 49.8414 212.918 47.3766C211.974 44.8594 211.502 42.0275 211.502 38.881ZM233.842 29.0482C231.01 29.0482 228.834 29.861 227.313 31.4867C225.792 33.1124 225.032 35.5772 225.032 38.881C225.032 42.1324 225.74 44.5972 227.156 46.2753C228.572 47.901 230.617 48.7139 233.292 48.7139C234.236 48.7139 235.075 48.5828 235.809 48.3205C236.595 48.0059 237.199 47.665 237.618 47.2979V29.9921C236.569 29.3628 235.311 29.0482 233.842 29.0482Z" stroke="#0F4C83" stroke-width="2.66667" mask="url(#path-1-outside-1_2_36)"/>
<path d="M294.093 38.881C294.093 42.1324 293.595 45.0429 292.598 47.6126C291.602 50.1298 290.186 52.2537 288.351 53.9843C286.568 55.7148 284.418 57.0259 281.9 57.9174C279.383 58.8089 276.577 59.2547 273.483 59.2547C270.389 59.2547 267.584 58.7827 265.066 57.8387C262.549 56.8948 260.373 55.5575 258.537 53.8269C256.754 52.0439 255.365 49.8938 254.368 47.3766C253.372 44.8594 252.874 42.0275 252.874 38.881C252.874 35.787 253.372 32.9813 254.368 30.4641C255.365 27.9469 256.754 25.823 258.537 24.0924C260.373 22.3094 262.549 20.9459 265.066 20.002C267.584 19.058 270.389 18.586 273.483 18.586C276.577 18.586 279.383 19.0842 281.9 20.0806C284.418 21.0246 286.568 22.3881 288.351 24.1711C290.186 25.9017 291.602 28.0256 292.598 30.5428C293.595 33.06 294.093 35.8394 294.093 38.881ZM266.561 38.881C266.561 42.08 267.164 44.5447 268.37 46.2753C269.629 47.9535 271.359 48.7925 273.562 48.7925C275.765 48.7925 277.443 47.9272 278.596 46.1967C279.803 44.4661 280.406 42.0275 280.406 38.881C280.406 35.7345 279.803 33.3222 278.596 31.644C277.39 29.9135 275.686 29.0482 273.483 29.0482C271.281 29.0482 269.576 29.9135 268.37 31.644C267.164 33.3222 266.561 35.7345 266.561 38.881Z" stroke="#0F4C83" stroke-width="2.66667" mask="url(#path-1-outside-1_2_36)"/>
<path d="M309.27 57.9174C308.746 58.0747 307.907 58.2321 306.753 58.3894C305.652 58.5467 304.498 58.6254 303.292 58.6254C302.138 58.6254 301.089 58.5467 300.145 58.3894C299.254 58.2321 298.493 57.9174 297.864 57.4454C297.235 56.9734 296.736 56.3441 296.369 55.5575C296.055 54.7184 295.897 53.6434 295.897 52.3323V28.7335C295.897 27.5274 296.107 26.5048 296.527 25.6657C296.999 24.7742 297.654 23.9875 298.493 23.3058C299.332 22.6241 300.355 22.021 301.561 21.4966C302.82 20.9197 304.157 20.4215 305.573 20.002C306.989 19.5824 308.457 19.2678 309.978 19.058C311.499 18.7958 313.02 18.6647 314.54 18.6647C317.058 18.6647 319.05 19.1629 320.519 20.1593C321.987 21.1032 322.721 22.6765 322.721 24.8791C322.721 25.6132 322.616 26.3474 322.407 27.0816C322.197 27.7634 321.935 28.3927 321.62 28.9695C320.519 28.9695 319.391 29.022 318.238 29.1268C317.084 29.2317 315.956 29.3891 314.855 29.5988C313.754 29.8086 312.705 30.0446 311.709 30.3068C310.765 30.5166 309.952 30.7788 309.27 31.0934V57.9174Z" stroke="#0F4C83" stroke-width="2.66667" mask="url(#path-1-outside-1_2_36)"/>
</svg>
